<?xml version="1.0" standalone="no"?>
<!DOCTYPE svg PUBLIC "-//W3C//DTD SVG 20010904//EN"
 "http://www.w3.org/TR/2001/REC-SVG-20010904/DTD/svg10.dtd">
<svg version="1.0" xmlns="http://www.w3.org/2000/svg"
 width="1299.000000pt" height="1299.000000pt" viewBox="0 0 1299.000000 1299.000000"
 preserveAspectRatio="xMidYMid meet">
<metadata>
Created by potrace 1.11, written by Peter Selinger 2001-2013
</metadata>
<g transform="translate(0.000000,1299.000000) scale(0.100000,-0.100000)"
fill="#000000" stroke="none">
<path d="M1768 12389 c-306 -36 -594 -180 -811 -409 -209 -219 -326 -477 -357
-786 -8 -78 -10 -1437 -8 -4774 l4 -4665 21 -95 c123 -549 517 -935 1068
-1047 86 -17 283 -18 4810 -18 4511 0 4724 1 4809 18 271 55 490 167 677 345
205 195 327 415 391 705 l23 102 0 4715 c0 3894 -2 4730 -13 4800 -31 195
-128 423 -248 583 -196 261 -464 430 -806 510 l-93 22 -4695 1 c-2661 1 -4728
-2 -4772 -7z m9371 -529 c113 -12 184 -32 276 -76 192 -93 339 -261 412 -469
l28 -80 0 -4740 0 -4740 -28 -80 c-89 -252 -274 -433 -533 -517 l-69 -23
-4730 0 -4730 0 -69 23 c-259 84 -444 265 -533 517 l-28 80 -3 4700 c-2 3390
0 4718 8 4765 34 196 172 401 346 513 120 77 223 113 358 126 123 12 9182 13
9295 1z"/>
<path d="M2470 11390 c-52 -5 -113 -13 -135 -17 l-40 -9 -3 -891 -2 -891 42
-6 c263 -35 517 -7 683 77 119 59 243 212 296 363 47 136 60 222 66 433 11
387 -49 601 -212 767 -80 82 -173 132 -292 158 -90 20 -278 27 -403 16z m363
-303 c76 -45 124 -124 159 -264 20 -78 23 -114 23 -313 0 -180 -4 -242 -18
-309 -51 -236 -149 -351 -299 -351 l-58 0 0 628 c0 346 3 632 8 636 4 5 37 6
74 3 47 -3 79 -12 111 -30z"/>
<path d="M3620 10480 l0 -910 410 0 410 0 0 150 0 150 -235 0 -235 0 0 250 0
250 205 0 205 0 0 145 0 145 -205 0 -205 0 0 210 0 210 215 0 215 0 0 155 0
155 -390 0 -390 0 0 -910z"/>
<path d="M4680 10480 l0 -910 405 0 405 0 0 150 0 150 -230 0 -230 0 0 760 0
760 -175 0 -175 0 0 -910z"/>
<path d="M5710 10480 l0 -910 175 0 175 0 0 380 0 380 185 0 185 0 0 -380 0
-380 175 0 175 0 0 910 0 910 -175 0 -175 0 0 -365 0 -365 -185 0 -185 0 0
365 0 365 -175 0 -175 0 0 -910z"/>
<path d="M7355 11378 c-2 -7 -91 -416 -198 -908 l-193 -895 165 -3 c102 -1
167 1 171 8 3 5 23 100 44 210 l38 200 166 -2 165 -3 32 -170 c18 -93 35 -187
39 -207 l7 -38 171 0 c157 0 170 1 166 18 -3 9 -83 419 -178 910 l-174 892
-208 0 c-158 0 -210 -3 -213 -12z m224 -448 c7 -52 33 -223 57 -379 24 -155
44 -285 44 -287 0 -2 -58 -4 -130 -4 -71 0 -130 4 -130 8 0 5 16 96 35 203 19
107 46 268 60 359 37 242 36 239 45 215 4 -11 13 -63 19 -115z"/>
<path d="M8340 10480 l0 -910 175 0 175 0 0 910 0 910 -175 0 -175 0 0 -910z"/>
<path d="M8930 11235 l0 -155 260 0 c143 0 260 -3 260 -6 0 -3 -128 -294 -285
-647 l-285 -642 0 -108 0 -107 485 0 485 0 0 150 0 150 -269 0 c-149 0 -272 3
-275 8 -2 4 119 288 270 631 l274 625 0 128 0 128 -460 0 -460 0 0 -155z"/>
<path d="M10050 10480 l0 -910 410 0 410 0 0 150 0 150 -235 0 -235 0 0 250 0
250 205 0 205 0 0 145 0 145 -205 0 -205 0 0 210 0 210 215 0 215 0 0 155 0
155 -390 0 -390 0 0 -910z"/>
<path d="M5895 9139 c-29 -10 -99 -31 -268 -84 -45 -14 -109 -35 -142 -46
-153 -50 -148 -49 -664 -59 -351 -7 -496 -13 -501 -21 -4 -6 -13 -30 -20 -53
-27 -91 -20 -86 -112 -87 -46 0 -177 -3 -293 -5 -115 -2 -243 -4 -283 -4 l-72
0 6 -27 c3 -16 16 -62 29 -103 12 -41 35 -118 50 -170 54 -187 73 -235 90
-238 10 -2 85 8 169 22 333 55 401 65 407 58 9 -9 49 -132 49 -149 0 -11 -107
-13 -564 -13 l-564 0 -5 -52 c-3 -29 -6 -78 -7 -108 0 -30 -5 -93 -10 -140 -6
-47 -10 -88 -10 -92 0 -5 59 -8 131 -8 l132 0 -7 95 -7 95 465 0 c256 0 466
-3 466 -6 0 -3 -8 -18 -19 -32 -10 -15 -46 -74 -81 -132 -34 -58 -79 -130 -99
-160 -19 -30 -37 -57 -38 -59 -1 -2 -35 23 -74 55 -214 175 -321 256 -328 248
-5 -5 -38 -55 -75 -111 -57 -86 -65 -105 -56 -122 16 -31 199 -301 233 -344
17 -22 27 -45 24 -55 -3 -9 -24 -69 -47 -132 -22 -63 -59 -167 -80 -230 -22
-63 -55 -160 -75 -215 -19 -55 -51 -145 -70 -200 -18 -55 -52 -152 -75 -215
-23 -63 -43 -122 -45 -130 -2 -8 -24 -71 -48 -140 -24 -69 -64 -183 -89 -255
-25 -71 -51 -143 -57 -159 -6 -16 -10 -30 -9 -31 2 -1 89 39 193 91 105 51
195 93 201 93 6 1 21 -34 33 -76 13 -43 33 -112 45 -153 13 -41 36 -118 51
-170 15 -52 36 -123 47 -156 10 -34 21 -74 24 -88 2 -14 9 -37 14 -51 9 -23
-1 -43 -87 -178 -53 -84 -107 -170 -120 -192 -14 -22 -46 -74 -73 -115 -27
-41 -70 -109 -95 -150 -25 -41 -67 -106 -93 -144 -46 -68 -49 -70 -152 -116
-107 -48 -123 -62 -134 -122 -4 -22 -68 -235 -111 -365 l-14 -43 569 0 569 0
-15 58 c-9 31 -26 95 -39 142 -13 47 -26 102 -29 122 -7 40 -16 27 189 298 23
30 70 96 105 145 35 50 67 92 70 95 7 6 184 245 245 330 22 30 42 57 45 60 3
3 19 22 35 43 15 21 31 34 36 30 4 -4 21 -44 39 -88 17 -44 43 -105 56 -136
13 -31 24 -59 24 -62 0 -4 11 -30 24 -60 14 -29 31 -71 39 -92 28 -76 98 -250
116 -291 l19 -41 -126 -73 c-234 -135 -215 -118 -241 -212 -12 -46 -33 -122
-47 -169 -13 -47 -24 -89 -24 -92 0 -4 287 -7 638 -7 l638 0 2 24 c1 13 11 62
22 110 11 48 23 108 26 134 3 26 9 64 14 86 9 41 8 43 -237 429 -29 45 -61 98
-72 117 -23 43 -42 1 173 384 l149 266 527 0 527 0 324 159 c178 87 452 222
608 300 157 77 286 139 289 137 2 -3 -39 -87 -91 -188 -52 -101 -141 -273
-197 -383 -56 -110 -133 -258 -170 -330 -83 -160 -202 -390 -306 -592 l-78
-151 -75 -21 c-42 -12 -112 -32 -156 -45 -44 -13 -92 -27 -107 -30 -16 -4 -28
-12 -29 -19 -1 -27 -22 -104 -75 -283 -13 -45 -24 -87 -24 -93 0 -8 172 -11
613 -11 l612 0 25 173 c13 94 25 188 25 208 1 34 82 155 330 494 28 39 84 117
125 175 41 58 97 137 125 175 28 39 62 85 74 103 l23 33 72 -78 c87 -93 259
-284 338 -375 l58 -65 -36 -79 c-47 -106 -57 -127 -93 -209 l-30 -70 -63 -13
c-35 -7 -110 -24 -168 -37 -58 -14 -116 -26 -130 -27 -28 -3 -49 -40 -99 -173
-16 -44 -41 -110 -55 -147 -14 -36 -26 -71 -26 -77 0 -8 175 -11 593 -11 l592
0 29 87 c15 49 34 104 41 123 7 19 56 165 108 323 74 221 94 293 87 311 -4 12
-11 40 -14 62 -4 21 -16 73 -28 114 -11 41 -22 84 -23 95 -2 12 -12 54 -24 95
-11 41 -23 91 -26 110 -3 19 -15 64 -25 100 -10 36 -22 79 -24 96 -3 18 -26
112 -51 210 -25 99 -48 193 -51 209 -3 17 -14 59 -24 95 -10 36 -22 80 -25 99
-3 19 -16 66 -28 105 -21 70 -22 83 -25 818 l-3 747 -117 99 c-64 55 -153 130
-197 166 l-80 66 -1246 0 -1247 0 -6 34 c-4 19 -9 70 -11 113 -3 43 -10 122
-16 176 -8 72 -8 123 0 190 6 51 13 130 16 176 3 47 8 95 11 108 l6 23 1248 0
1248 0 82 -95 c45 -53 129 -153 187 -223 58 -70 109 -128 114 -130 5 -2 9 174
9 427 l0 431 -1625 0 -1625 0 -4 -22 c-8 -37 -44 -349 -45 -396 -1 -24 -11
-112 -21 -195 -25 -188 -25 -216 -1 -403 11 -83 21 -173 22 -200 1 -53 37
-374 45 -411 l4 -23 1360 0 1360 0 -2 -197 -3 -198 -1590 0 -1590 0 -12 245
c-6 135 -12 313 -13 395 -2 178 -45 1113 -51 1119 -3 3 -53 -36 -113 -85 -59
-50 -110 -89 -112 -87 -3 4 54 198 97 324 11 34 22 68 23 75 1 8 19 66 39 130
20 63 37 118 37 122 0 9 -7 8 -45 -4z"/>
<path d="M7295 3129 c-258 -38 -425 -214 -450 -475 -9 -89 13 -194 57 -277 43
-80 148 -191 246 -258 147 -100 208 -155 236 -210 64 -130 9 -276 -117 -310
-68 -18 -229 -6 -317 24 -41 14 -76 24 -78 22 -2 -1 -14 -67 -27 -146 -19
-111 -22 -145 -12 -151 31 -20 148 -49 245 -59 273 -31 509 76 615 278 46 88
72 212 63 304 -18 198 -115 345 -314 475 -143 95 -200 142 -228 190 -23 39
-26 53 -22 113 7 124 77 181 223 180 55 0 97 -6 135 -20 30 -11 62 -22 71 -25
13 -4 20 20 42 142 30 165 33 155 -48 179 -105 33 -208 40 -320 24z"/>
<path d="M4549 3119 c-53 -5 -114 -12 -135 -17 l-39 -8 -3 -891 -2 -891 42 -6
c102 -13 321 -17 428 -7 215 20 339 68 441 170 108 108 144 210 137 385 -3 88
-8 110 -35 168 -45 95 -110 161 -206 207 l-78 39 59 36 c94 57 154 132 187
234 13 42 16 78 13 160 -3 91 -8 116 -32 170 -52 113 -171 202 -318 237 -78
19 -330 27 -459 14z m369 -278 c60 -31 94 -93 100 -186 11 -174 -85 -285 -247
-285 l-51 0 0 244 0 245 23 5 c44 9 134 -2 175 -23z m-37 -743 c61 -20 114
-64 144 -120 27 -48 30 -61 30 -148 0 -79 -4 -102 -22 -136 -46 -87 -136 -134
-255 -134 l-58 0 0 275 0 275 64 0 c34 0 78 -5 97 -12z"/>
<path d="M5925 3108 c-2 -7 -91 -416 -198 -908 l-193 -895 165 -3 c102 -1 167
1 171 8 3 5 23 100 44 210 l38 200 166 -2 165 -3 32 -170 c18 -93 35 -187 39
-207 l7 -38 171 0 c157 0 170 1 166 18 -3 9 -83 419 -178 910 l-174 892 -208
0 c-158 0 -210 -3 -213 -12z m224 -448 c7 -52 33 -223 57 -379 24 -155 44
-285 44 -287 0 -2 -58 -4 -130 -4 -71 0 -130 4 -130 8 0 5 16 96 35 203 19
107 46 268 60 359 37 242 36 239 45 215 4 -11 13 -63 19 -115z"/>
<path d="M7970 2210 l0 -910 410 0 410 0 0 150 0 150 -235 0 -235 0 0 250 0
250 205 0 205 0 0 145 0 145 -205 0 -205 0 0 210 0 210 215 0 215 0 0 155 0
155 -390 0 -390 0 0 -910z"/>
</g>
</svg>
